<svg width="60" height="60" viewBox="0 0 60 60" fill="none" xmlns="http://www.w3.org/2000/svg">
<g clip-path="url(#clip0_16704_504)">
<path d="M19.5978 36.9463C16.8731 38.5194 15.9395 42.0035 17.5126 44.7282L20.7573 50.3482C21.4759 51.5929 21.0495 53.1846 19.8048 53.9032L11.8777 58.4799C10.3141 59.3826 8.32874 58.4577 8.01384 56.6799L5.90661 44.7799C5.10525 40.2544 6.95009 35.6676 10.6618 32.9573L10.9931 32.7153L19.5978 36.9463Z" fill="#CD2594"/>
<path d="M21.3197 18.6654L51.6185 1.17186L55.1116 7.22188L24.8128 24.7154L21.3197 18.6654Z" fill="#E2E9EE"/>
<path d="M28.8052 31.6304L18.4155 37.6288C16.5161 38.7255 14.0872 38.0748 12.9905 36.1752L9.47672 30.0892C8.38003 28.1897 9.0308 25.7608 10.9304 24.6641L21.32 18.6656L28.8052 31.6304Z" fill="#A7BDCD"/>
<path d="M24.8125 24.7153L29.5661 21.9707L32.3107 26.7243L27.5571 29.4689L24.8125 24.7153Z" fill="#C5D3DE"/>
<path d="M29.5662 21.9709L42.9626 14.2362L45.7072 18.9899L32.3107 26.7245L29.5662 21.9709Z" fill="#E2E9EE"/>
<path d="M56.1278 6.63636L52.6347 0.586196C52.3111 0.0256666 51.5942 -0.166411 51.0338 0.157273L49.0236 1.31783L48.7019 0.760578C48.3785 0.200166 47.6621 0.00797056 47.1011 0.331655C46.5406 0.655223 46.3485 1.37197 46.6722 1.9325L46.9939 2.48975L40.1456 6.44358C39.5851 6.76714 39.393 7.48389 39.7167 8.04442C40.0404 8.60495 40.7568 8.79715 41.3175 8.47334L51.1909 2.773L53.5121 6.79339L25.2421 23.115L22.9209 19.0946L32.1836 13.7468C32.7441 13.4232 32.9362 12.7064 32.6125 12.1459C32.289 11.5854 31.5721 11.3934 31.0117 11.717L10.3445 23.6493C9.15477 24.3361 8.3036 25.4453 7.94804 26.7723C7.59248 28.0993 7.77495 29.4853 8.46193 30.6752L8.51994 30.7756C7.43591 30.3773 6.4965 29.6112 5.90222 28.5816C5.57854 28.0211 4.86191 27.829 4.30138 28.1527C3.74085 28.4763 3.54877 29.193 3.87245 29.7536C4.89214 31.5198 6.60326 32.7586 8.53635 33.224C7.22684 34.5009 6.19297 36.0392 5.50459 37.7506C4.58123 40.0464 4.32118 42.5478 4.75268 44.9843L6.85991 56.8842C7.07437 58.0952 7.86788 59.1281 8.98261 59.6474C9.48853 59.8831 10.0328 60 10.5761 60C11.2298 60 11.8821 59.8306 12.4637 59.4947L20.3908 54.918C21.2639 54.4139 21.8884 53.6 22.1494 52.6262C22.4104 51.6523 22.2764 50.6352 21.7723 49.7621L18.5276 44.1422C18.0915 43.3869 17.8994 42.5569 17.9253 41.7434L18.2799 42.3576C18.9129 43.4538 19.9348 44.2379 21.1575 44.5656C21.5658 44.675 21.9802 44.7292 22.3917 44.7292C23.2129 44.7292 24.0233 44.5138 24.7535 44.0922L28.2086 42.0975C29.3048 41.4646 30.0889 40.4427 30.4166 39.22C30.7442 37.9972 30.576 36.7202 29.9431 35.6239L28.5154 33.151L29.3911 32.6454C29.6603 32.49 29.8568 32.234 29.9371 31.9338C30.0177 31.6336 29.9755 31.3136 29.8201 31.0445L29.1585 29.8986L46.2941 20.0054C46.8546 19.6818 47.0467 18.9651 46.723 18.4046L44.5645 14.6658L55.6988 8.23744C55.968 8.08204 56.1644 7.82609 56.2448 7.52585C56.3254 7.22537 56.2832 6.90555 56.1278 6.63636V6.63636ZM10.2121 27.3789C10.4056 26.6566 10.8688 26.053 11.5164 25.679L20.8912 20.2665L22.2144 22.5583L14.7303 26.8793C14.1698 27.2029 13.9777 27.9196 14.3014 28.4801C14.5184 28.8561 14.9123 29.0662 15.3173 29.0662C15.5161 29.0662 15.7176 29.0156 15.9022 28.9091L23.3863 24.5881L24.7094 26.8798L17.2253 31.2008C16.6648 31.5243 16.4727 32.2411 16.7964 32.8016C17.0134 33.1776 17.4073 33.3877 17.8123 33.3877C18.0111 33.3877 18.2127 33.3371 18.3972 33.2305L25.8814 28.9095L27.2046 31.2013L17.8298 36.6139C17.1822 36.9878 16.4278 37.0872 15.7055 36.8935C14.9832 36.7 14.3795 36.2367 14.0056 35.5891L10.4918 29.5031C10.1177 28.8556 10.0185 28.1011 10.2121 27.3789V27.3789ZM19.7424 50.934C19.9334 51.265 19.9841 51.6504 19.8852 52.0196C19.7863 52.3886 19.5497 52.6971 19.2188 52.8882L11.2916 57.4649C10.8821 57.7013 10.4011 57.7225 9.9723 57.5227C9.54349 57.3229 9.25028 56.9413 9.16778 56.4755L7.06055 44.5755C6.39513 40.8178 7.79475 36.9458 10.6504 34.4656L11.9757 36.7611C12.8628 38.2977 14.4286 39.2026 16.0781 39.3183C15.3199 41.2093 15.4024 43.4169 16.4978 45.3141L19.7424 50.934ZM27.9134 36.7957C28.5737 37.9395 28.1804 39.4073 27.0366 40.0676L23.5816 42.0624C23.0275 42.3823 22.3821 42.4671 21.7641 42.3017C21.1461 42.1361 20.6295 41.7397 20.3097 41.1858L19.4119 39.6306L20.9394 40.04C21.041 40.0672 21.1431 40.0802 21.2435 40.0802C21.7609 40.0802 22.2345 39.7348 22.3747 39.2113C22.5423 38.5861 22.1713 37.9435 21.5461 37.7759L20.835 37.5854L26.4857 34.3229L27.9134 36.7957ZM27.9867 27.8688L26.4141 25.1449L29.138 23.5723L30.7106 26.2962L27.9867 27.8688ZM32.7404 25.1242L31.1678 22.4003L42.5348 15.8376L44.1074 18.5615L32.7404 25.1242Z" fill="black"/>
<path d="M13.5438 49.1436C13.2356 49.1436 12.9333 49.2689 12.7153 49.4869C12.4973 49.7049 12.3719 50.0072 12.3719 50.3154C12.3719 50.6236 12.4973 50.926 12.7153 51.1439C12.9333 51.3619 13.2356 51.4873 13.5438 51.4873C13.852 51.4873 14.1544 51.3619 14.3723 51.1439C14.5903 50.926 14.7157 50.6236 14.7157 50.3154C14.7157 50.0072 14.5903 49.7049 14.3723 49.4869C14.1545 49.2688 13.8521 49.1436 13.5438 49.1436Z" fill="black"/>
<path d="M36.1654 11.2669C36.4737 11.2669 36.7747 11.1415 36.9939 10.9235C37.2118 10.7055 37.3372 10.4032 37.3372 10.095C37.3372 9.78678 37.212 9.48444 36.9939 9.26647C36.7747 9.0485 36.4737 8.92311 36.1654 8.92311C35.856 8.92311 35.5548 9.0485 35.3358 9.26647C35.1178 9.48444 34.9923 9.78678 34.9923 10.095C34.9923 10.4032 35.1177 10.7055 35.3358 10.9235C35.5548 11.1416 35.856 11.2669 36.1654 11.2669Z" fill="black"/>
</g>
<defs>
<clipPath id="clip0_16704_504">
<rect width="60" height="60" fill="white"/>
</clipPath>
</defs>
</svg>
